<?xml version="1.0" encoding="utf-8"?>
<svg xmlns="http://www.w3.org/2000/svg"
	xmlns:xlink="http://www.w3.org/1999/xlink"
	width="1000px" height="277px" viewBox="0 0 1085 277">
<path fillRule="evenodd" d="M 1727.03 270.86C 1725.04 270.86 1703.19 277 1700.21 277 1694.25 277 1683.32 270.35 1675.37 270.35 1675.37 270.35 1673.25 270.86 1673.03 270.86 1671.04 270.86 1649.19 277 1646.21 277 1640.25 277 1629.32 270.35 1621.37 270.35 1621.37 270.35 1619.25 270.86 1619.03 270.86 1617.04 270.86 1595.19 277 1592.21 277 1586.24 277 1575.32 270.35 1567.37 270.35 1567.37 270.35 1565.25 270.86 1565.03 270.86 1563.04 270.86 1541.19 277 1538.21 277 1532.24 277 1521.32 270.35 1513.37 270.35 1513.37 270.35 1511.25 270.86 1511.03 270.86 1509.04 270.86 1487.19 277 1484.21 277 1478.24 277 1467.32 270.35 1459.37 270.35 1459.37 270.35 1457.25 270.86 1457.03 270.86 1455.04 270.86 1433.19 277 1430.21 277 1424.24 277 1413.32 270.35 1405.37 270.35 1405.37 270.35 1403.25 270.86 1403.03 270.86 1401.04 270.86 1379.19 277 1376.21 277 1370.24 277 1359.32 270.35 1351.37 270.35 1351.37 270.35 1349.25 270.86 1349.03 270.86 1347.04 270.86 1325.19 277 1322.21 277 1316.24 277 1305.32 270.35 1297.37 270.35 1297.37 270.35 1295.25 270.86 1295.03 270.86 1293.04 270.86 1271.19 277 1268.21 277 1262.24 277 1251.32 270.35 1243.37 270.35 1243.37 270.35 1241.25 270.86 1241.03 270.86 1239.04 270.86 1217.19 277 1214.21 277 1208.24 277 1197.32 270.35 1189.37 270.35 1189.37 270.35 1187.25 270.86 1187.03 270.86 1185.04 270.86 1163.19 277 1160.21 277 1154.24 277 1143.32 270.35 1135.37 270.35 1135.37 270.35 1133.25 270.86 1133.03 270.86 1131.04 270.86 1109.19 277 1106.21 277 1100.24 277 1089.32 270.35 1081.37 270.35 1081.37 270.35 1079.25 270.86 1079.03 270.86 1077.04 270.86 1055.19 277 1052.21 277 1046.25 277 1035.32 270.35 1027.37 270.35 1027.37 270.35 1025.25 270.86 1025.03 270.86 1023.04 270.86 1001.19 277 998.21 277 992.25 277 981.32 270.35 973.37 270.35 973.37 270.35 971.25 270.86 971.03 270.86 969.04 270.86 947.19 277 944.21 277 938.25 277 927.32 270.35 919.37 270.35 919.37 270.35 917.25 270.86 917.03 270.86 915.04 270.86 893.19 277 890.21 277 884.25 277 873.32 270.35 865.37 270.35 865.37 270.35 863.25 270.86 863.03 270.86 861.04 270.86 839.19 277 836.21 277 830.25 277 819.32 270.35 811.37 270.35 811.37 270.35 809.25 270.86 809.03 270.86 807.04 270.86 785.19 277 782.21 277 776.25 277 765.32 270.35 757.37 270.35 757.37 270.35 755.25 270.86 755.03 270.86 753.04 270.86 731.19 277 728.21 277 722.25 277 711.32 270.35 703.37 270.35 703.37 270.35 701.25 270.86 701.03 270.86 699.04 270.86 677.19 277 674.21 277 668.25 277 657.32 270.35 649.37 270.35 649.37 270.35 647.25 270.86 647.03 270.86 645.04 270.86 623.19 277 620.21 277 614.25 277 603.32 270.35 595.37 270.35 595.37 270.35 593.25 270.86 593.03 270.86 591.04 270.86 569.19 277 566.21 277 560.25 277 549.32 270.35 541.37 270.35 541.37 270.35 539.25 270.86 539.03 270.86 537.04 270.86 515.19 277 512.21 277 506.25 277 495.32 270.35 487.37 270.35 487.37 270.35 485.25 270.86 485.03 270.86 483.04 270.86 461.19 277 458.21 277 452.25 277 441.32 270.35 433.37 270.35 433.37 270.35 431.25 270.86 431.03 270.86 429.04 270.86 407.19 277 404.21 277 398.25 277 387.32 270.35 379.37 270.35 379.37 270.35 377.25 270.86 377.03 270.86 375.04 270.86 353.19 277 350.21 277 344.25 277 333.32 270.35 325.37 270.35 325.37 270.35 323.25 270.86 323.03 270.86 321.04 270.86 299.19 277 296.21 277 290.25 277 279.32 270.35 271.37 270.35 271.37 270.35 269.25 270.86 269.03 270.86 267.04 270.86 245.19 277 242.21 277 236.24 277 225.32 270.35 217.37 270.35 217.37 270.35 215.25 270.86 215.03 270.86 213.04 270.86 191.19 277 188.21 277 182.24 277 171.32 270.35 163.37 270.35 163.37 270.35 161.25 270.86 161.03 270.86 159.04 270.86 137.19 277 134.21 277 128.24 277 117.32 270.35 109.37 270.35 109.37 270.35 107.25 270.86 107.03 270.86 105.04 270.86 83.19 277 80.21 277 74.24 277 63.32 270.35 55.37 270.35 55.37 270.35 53.25 270.86 53.03 270.86 51.04 270.86 29.19 277 26.21 277 20.24 277 9.32 270.35 1.37 270.35 1.37 270.35 0 270.36 0 270.36 0 270.36 0 255 0 255 0 255 1728 255 1728 255 1728 255 1728 270.96 1728 270.96 1727.58 270.9 1727.25 270.86 1727.03 270.86Z" fill="#26c9ff"/></svg>
