<svg width="1085" height="277" xmlns:xlink="http://www.w3.org/1999/xlink" xmlns="http://www.w3.org/2000/svg">
 <g>
  <path transform="rotate(180 864.6849975585938,266) " fill="#f8f8f8" d="m1727.03003,270.85999c-1.98999,0 -23.84009,6.14001 -26.82007,6.14001c-5.95996,0 -16.89001,-6.64999 -24.83997,-6.64999c0,0 -2.12,0.50998 -2.33997,0.50998c-1.98999,0 -23.84009,6.14001 -26.82007,6.14001c-5.95996,0 -16.89001,-6.64999 -24.83997,-6.64999c0,0 -2.12,0.50998 -2.33997,0.50998c-1.98999,0 -23.84009,6.14001 -26.82007,6.14001c-5.96997,0 -16.89001,-6.64999 -24.83997,-6.64999c0,0 -2.12,0.50998 -2.33997,0.50998c-1.98999,0 -23.84009,6.14001 -26.82007,6.14001c-5.96997,0 -16.89001,-6.64999 -24.83997,-6.64999c0,0 -2.12,0.50998 -2.33997,0.50998c-1.98999,0 -23.84009,6.14001 -26.82007,6.14001c-5.96997,0 -16.89001,-6.64999 -24.83997,-6.64999c0,0 -2.12,0.50998 -2.33997,0.50998c-1.98999,0 -23.84009,6.14001 -26.82007,6.14001c-5.96997,0 -16.89001,-6.64999 -24.83997,-6.64999c0,0 -2.12,0.50998 -2.33997,0.50998c-1.98999,0 -23.84009,6.14001 -26.82007,6.14001c-5.96997,0 -16.89001,-6.64999 -24.83997,-6.64999c0,0 -2.12,0.50998 -2.33997,0.50998c-1.98999,0 -23.84009,6.14001 -26.82007,6.14001c-5.96997,0 -16.89001,-6.64999 -24.83997,-6.64999c0,0 -2.12,0.50998 -2.33997,0.50998c-1.98999,0 -23.84009,6.14001 -26.82007,6.14001c-5.96997,0 -16.89001,-6.64999 -24.83997,-6.64999c0,0 -2.12,0.50998 -2.33997,0.50998c-1.98999,0 -23.84009,6.14001 -26.82007,6.14001c-5.96997,0 -16.89001,-6.64999 -24.83997,-6.64999c0,0 -2.12,0.50998 -2.33997,0.50998c-1.98999,0 -23.84009,6.14001 -26.82007,6.14001c-5.96997,0 -16.89001,-6.64999 -24.83997,-6.64999c0,0 -2.12,0.50998 -2.33997,0.50998c-1.98999,0 -23.84009,6.14001 -26.82007,6.14001c-5.96997,0 -16.89001,-6.64999 -24.83997,-6.64999c0,0 -2.12,0.50998 -2.33997,0.50998c-1.98999,0 -23.84009,6.14001 -26.82007,6.14001c-5.95996,0 -16.89001,-6.64999 -24.83997,-6.64999c0,0 -2.12,0.50998 -2.33997,0.50998c-1.99005,0 -23.84003,6.14001 -26.82001,6.14001c-5.96002,0 -16.89001,-6.64999 -24.84003,-6.64999c0,0 -2.12,0.50998 -2.33997,0.50998c-1.99005,0 -23.84003,6.14001 -26.82001,6.14001c-5.96002,0 -16.89001,-6.64999 -24.84003,-6.64999c0,0 -2.12,0.50998 -2.33997,0.50998c-1.99005,0 -23.84003,6.14001 -26.82001,6.14001c-5.96002,0 -16.89001,-6.64999 -24.84003,-6.64999c0,0 -2.12,0.50998 -2.33997,0.50998c-1.99005,0 -23.84003,6.14001 -26.82001,6.14001c-5.96002,0 -16.89001,-6.64999 -24.84003,-6.64999c0,0 -2.12,0.50998 -2.33997,0.50998c-1.99005,0 -23.84003,6.14001 -26.82001,6.14001c-5.96002,0 -16.89001,-6.64999 -24.84003,-6.64999c0,0 -2.12,0.50998 -2.33997,0.50998c-1.99005,0 -23.84003,6.14001 -26.82001,6.14001c-5.96002,0 -16.89001,-6.64999 -24.84003,-6.64999c0,0 -2.12,0.50998 -2.33997,0.50998c-1.99005,0 -23.84003,6.14001 -26.82001,6.14001c-5.96002,0 -16.89001,-6.64999 -24.84003,-6.64999c0,0 -2.12,0.50998 -2.33997,0.50998c-1.99005,0 -23.84003,6.14001 -26.82001,6.14001c-5.96002,0 -16.89001,-6.64999 -24.84003,-6.64999c0,0 -2.12,0.50998 -2.33997,0.50998c-1.99005,0 -23.84003,6.14001 -26.82001,6.14001c-5.96002,0 -16.89001,-6.64999 -24.84003,-6.64999c0,0 -2.12,0.50998 -2.33997,0.50998c-1.99005,0 -23.84003,6.14001 -26.82001,6.14001c-5.96002,0 -16.89001,-6.64999 -24.84003,-6.64999c0,0 -2.12,0.50998 -2.34,0.50998c-1.98999,0 -23.84,6.14001 -26.82001,6.14001c-5.95999,0 -16.88998,-6.64999 -24.84,-6.64999c0,0 -2.12,0.50998 -2.34,0.50998c-1.98999,0 -23.84,6.14001 -26.82001,6.14001c-5.95999,0 -16.88998,-6.64999 -24.84,-6.64999c0,0 -2.12,0.50998 -2.34,0.50998c-1.98999,0 -23.84,6.14001 -26.82001,6.14001c-5.95999,0 -16.88998,-6.64999 -24.84,-6.64999c0,0 -2.12,0.50998 -2.34,0.50998c-1.98999,0 -23.84,6.14001 -26.82001,6.14001c-5.95999,0 -16.88998,-6.64999 -24.84,-6.64999c0,0 -2.12,0.50998 -2.34,0.50998c-1.98999,0 -23.84,6.14001 -26.81999,6.14001c-5.97,0 -16.89,-6.64999 -24.84001,-6.64999c0,0 -2.12,0.50998 -2.34,0.50998c-1.99001,0 -23.84,6.14001 -26.81999,6.14001c-5.97,0 -16.89,-6.64999 -24.84001,-6.64999c0,0 -2.12,0.50998 -2.34,0.50998c-1.99001,0 -23.84,6.14001 -26.81999,6.14001c-5.97,0 -16.89001,-6.64999 -24.84,-6.64999c0,0 -2.12,0.50998 -2.34,0.50998c-1.99,0 -23.84,6.14001 -26.82,6.14001c-5.97,0 -16.89,-6.64999 -24.84,-6.64999c0,0 -2.12,0.50998 -2.34,0.50998c-1.99,0 -23.84,6.14001 -26.82,6.14001c-5.97,0 -16.89,-6.64999 -24.84,-6.64999c0,0 -1.37,0.00998 -1.37,0.00998c0,0 0,-15.35999 0,-15.35999c0,0 1728,0 1728,0c0,0 0,15.95999 0,15.95999c-0.42004,-0.06 -0.75,-0.10001 -0.96997,-0.10001z"/>
 </g>
</svg>
