<svg width="1600" height="22" xmlns:xlink="http://www.w3.org/1999/xlink" xmlns="http://www.w3.org/2000/svg">
 <g>
  <path transform="rotate(180 864,11) " fill="#fff" d="m0,0c0,0 0,15.36 0,15.36c0,0 1.37,-0.01 1.37,-0.01c7.95,0 18.87,6.65 24.84,6.65c2.98,0 24.83,-6.14 26.82,-6.14c0.22,0 2.34,-0.51 2.34,-0.51c7.95,0 18.87,6.65 24.84,6.65c2.98,0 24.83,-6.14 26.82,-6.14c0.22,0 2.34,-0.51 2.34,-0.51c7.95,0 18.87,6.65 24.84,6.65c2.98,0 24.82999,-6.14 26.81999,-6.14c0.22,0 2.34,-0.51 2.34,-0.51c7.95001,0 18.87001,6.65 24.84001,6.65c2.98,0 24.82999,-6.14 26.81999,-6.14c0.22,0 2.34,-0.51 2.34,-0.51c7.95001,0 18.87001,6.65 24.84001,6.65c2.98,0 24.83,-6.14 26.81999,-6.14c0.22,0 2.34,-0.51 2.34,-0.51c7.95001,0 18.88,6.65 24.84,6.65c2.98001,0 24.83002,-6.14 26.82001,-6.14c0.22,0 2.34,-0.51 2.34,-0.51c7.95001,0 18.88,6.65 24.84,6.65c2.98001,0 24.83002,-6.14 26.82001,-6.14c0.22,0 2.34,-0.51 2.34,-0.51c7.95001,0 18.88,6.65 24.84,6.65c2.98001,0 24.83002,-6.14 26.82001,-6.14c0.22,0 2.34,-0.51 2.34,-0.51c7.95001,0 18.88,6.65 24.84,6.65c2.98001,0 24.83002,-6.14 26.82001,-6.14c0.22,0 2.34,-0.51 2.34,-0.51c7.95001,0 18.88,6.65 24.84003,6.65c2.97998,0 24.82996,-6.14 26.82001,-6.14c0.21997,0 2.33997,-0.51 2.33997,-0.51c7.95001,0 18.88,6.65 24.84003,6.65c2.97998,0 24.82996,-6.14 26.82001,-6.14c0.21997,0 2.33997,-0.51 2.33997,-0.51c7.95001,0 18.88,6.65 24.84003,6.65c2.97998,0 24.82996,-6.14 26.82001,-6.14c0.21997,0 2.33997,-0.51 2.33997,-0.51c7.95001,0 18.88,6.65 24.84003,6.65c2.97998,0 24.82996,-6.14 26.82001,-6.14c0.21997,0 2.33997,-0.51 2.33997,-0.51c7.95001,0 18.88,6.65 24.84003,6.65c2.97998,0 24.82996,-6.14 26.82001,-6.14c0.21997,0 2.33997,-0.51 2.33997,-0.51c7.95001,0 18.88,6.65 24.84003,6.65c2.97998,0 24.82996,-6.14 26.82001,-6.14c0.21997,0 2.33997,-0.51 2.33997,-0.51c7.95001,0 18.88,6.65 24.84003,6.65c2.97998,0 24.82996,-6.14 26.82001,-6.14c0.21997,0 2.33997,-0.51 2.33997,-0.51c7.95001,0 18.88,6.65 24.84003,6.65c2.97998,0 24.82996,-6.14 26.82001,-6.14c0.21997,0 2.33997,-0.51 2.33997,-0.51c7.95001,0 18.88,6.65 24.84003,6.65c2.97998,0 24.82996,-6.14 26.82001,-6.14c0.21997,0 2.33997,-0.51 2.33997,-0.51c7.95001,0 18.88,6.65 24.84003,6.65c2.97998,0 24.82996,-6.14 26.82001,-6.14c0.21997,0 2.33997,-0.51 2.33997,-0.51c7.94995,0 18.88,6.65 24.83997,6.65c2.97998,0 24.83008,-6.14 26.82007,-6.14c0.21997,0 2.33997,-0.51 2.33997,-0.51c7.94995,0 18.87,6.65 24.83997,6.65c2.97998,0 24.83008,-6.14 26.82007,-6.14c0.21997,0 2.33997,-0.51 2.33997,-0.51c7.94995,0 18.87,6.65 24.83997,6.65c2.97998,0 24.83008,-6.14 26.82007,-6.14c0.21997,0 2.33997,-0.51 2.33997,-0.51c7.94995,0 18.87,6.65 24.83997,6.65c2.97998,0 24.83008,-6.14 26.82007,-6.14c0.21997,0 2.33997,-0.51 2.33997,-0.51c7.94995,0 18.87,6.65 24.83997,6.65c2.97998,0 24.83008,-6.14 26.82007,-6.14c0.21997,0 2.33997,-0.51 2.33997,-0.51c7.94995,0 18.87,6.65 24.83997,6.65c2.97998,0 24.83008,-6.14 26.82007,-6.14c0.21997,0 2.33997,-0.51 2.33997,-0.51c7.94995,0 18.87,6.65 24.83997,6.65c2.97998,0 24.83008,-6.14 26.82007,-6.14c0.21997,0 2.33997,-0.51 2.33997,-0.51c7.94995,0 18.87,6.65 24.83997,6.65c2.97998,0 24.83008,-6.14 26.82007,-6.14c0.21997,0 2.33997,-0.51 2.33997,-0.51c7.94995,0 18.87,6.65 24.83997,6.65c2.97998,0 24.83008,-6.14 26.82007,-6.14c0.21997,0 2.33997,-0.51 2.33997,-0.51c7.94995,0 18.87,6.65 24.83997,6.65c2.97998,0 24.83008,-6.14 26.82007,-6.14c0.21997,0 2.33997,-0.51 2.33997,-0.51c7.94995,0 18.87,6.65 24.83997,6.65c2.97998,0 24.83008,-6.14 26.82007,-6.14c0.21997,0 2.33997,-0.51 2.33997,-0.51c7.94995,0 18.88,6.65 24.83997,6.65c2.97998,0 24.83008,-6.14 26.82007,-6.14c0.21997,0 2.33997,-0.51 2.33997,-0.51c7.94995,0 18.88,6.65 24.83997,6.65c2.97998,0 24.83008,-6.14 26.82007,-6.14c0.21997,0 0.54993,0.04 0.96997,0.1c0,0 0,-15.96 0,-15.96c0,0 -1728,0 -1728,0z"/>
 </g>
</svg>
